# xmcd CD database file
#
# Track frame offsets:
#	150
#	17086
#	36621
#	51643
#	65801
#	81971
#	102052
#	124342
#	139744
#	160495
#	173555
#	189629
#	210381
#
# Disc length: 3013 seconds
#
# Revision: 11
# Processed by: cddbd v1.5.2PL0 Copyright (c) Steve Scherf et al.
# Submitted via: CDex 1.79
#
DISCID=c10bc30d
DTITLE=Kelly Willis - What I Deserve
DYEAR=1999
DGENRE=Country
TTITLE0=Take Me Down
TTITLE1=What I Deserve
TTITLE2=Heaven Bound
TTITLE3=Talk Like That
TTITLE4=Not Forgotten You
TTITLE5=Wrapped
TTITLE6=Cradle Of Love
TTITLE7=Got a Feelin' For Ya
TTITLE8=Time Has Told Me
TTITLE9=Fading Fast
TTITLE10=Happy With That
TTITLE11=They're Blind
TTITLE12=Not Long For This World
EXTD=YEAR: 1999
EXTT0=
EXTT1=
EXTT2=
EXTT3=
EXTT4=
EXTT5=
EXTT6=
EXTT7=
EXTT8=
EXTT9=
EXTT10=
EXTT11=
EXTT12=
PLAYORDER=
